HIERARCHY
ROOT Hips
{
	OFFSET -0.001795 -0.223333 0.028219
	CHANNELS 6 Xposition Yposition Zposition Zrotation Yrotation Xrotation 
	JOINT LeftUpLeg
	{
		OFFSET 0.069520 -0.091406 -0.006815
		CHANNELS 3 Zrotation Yrotation Xrotation
		JOINT LeftLeg
		{
			OFFSET 0.034277 -0.375199 -0.004496
			CHANNELS 3 Zrotation Yrotation Xrotation
			JOINT LeftFoot
			{
				OFFSET -0.013596 -0.397961 -0.043693
				CHANNELS 3 Zrotation Yrotation Xrotation
				JOINT LeftToe
				{
					OFFSET 0.026358 -0.055791 0.119288
					CHANNELS 3 Zrotation Yrotation Xrotation
					End Site
					{
						OFFSET 0.000000 0.000000 0.000000
					}
				}
			}
		}
	}
	JOINT RightUpLeg
	{
		OFFSET -0.067670 -0.090522 -0.004320
		CHANNELS 3 Zrotation Yrotation Xrotation
		JOINT RightLeg
		{
			OFFSET -0.038290 -0.382569 -0.008850
			CHANNELS 3 Zrotation Yrotation Xrotation
			JOINT RightFoot
			{
				OFFSET 0.015774 -0.398415 -0.042312
				CHANNELS 3 Zrotation Yrotation Xrotation
				JOINT RightToe
				{
					OFFSET -0.025372 -0.048144 0.123348
					CHANNELS 3 Zrotation Yrotation Xrotation
					End Site
					{
						OFFSET 0.000000 0.000000 0.000000
					}
				}
			}
		}
	}
	JOINT Spine
	{
		OFFSET -0.002533 0.108963 -0.026696
		CHANNELS 3 Zrotation Yrotation Xrotation
		JOINT Spine1
		{
			OFFSET 0.005487 0.135180 0.001092
			CHANNELS 3 Zrotation Yrotation Xrotation
			JOINT Spine2
			{
				OFFSET 0.001457 0.052922 0.025425
				CHANNELS 3 Zrotation Yrotation Xrotation
				JOINT Neck
				{
					OFFSET -0.002778 0.213870 -0.042857
					CHANNELS 3 Zrotation Yrotation Xrotation
					JOINT Head
					{
						OFFSET 0.005152 0.064970 0.051349
						CHANNELS 3 Zrotation Yrotation Xrotation
						End Site
						{
							OFFSET 0.000000 0.000000 0.000000
						}
					}
				}
				JOINT LeftShoulder
				{
					OFFSET 0.078845 0.121749 -0.034090
					CHANNELS 3 Zrotation Yrotation Xrotation
					JOINT LeftArm
					{
						OFFSET 0.090977 0.030469 -0.008868
						CHANNELS 3 Zrotation Yrotation Xrotation
						JOINT LeftForeArm
						{
							OFFSET 0.259612 -0.012772 -0.027456
							CHANNELS 3 Zrotation Yrotation Xrotation
							JOINT LeftHand
							{
								OFFSET 0.249234 0.008986 -0.001171
								CHANNELS 3 Zrotation Yrotation Xrotation
								End Site
								{
									OFFSET 0.000000 0.000000 0.000000
								}
							}
						}
					}
				}
				JOINT RightShoulder
				{
					OFFSET -0.081759 0.118833 -0.038615
					CHANNELS 3 Zrotation Yrotation Xrotation
					JOINT RightArm
					{
						OFFSET -0.096012 0.032551 -0.009143
						CHANNELS 3 Zrotation Yrotation Xrotation
						JOINT RightForeArm
						{
							OFFSET -0.253742 -0.013329 -0.021401
							CHANNELS 3 Zrotation Yrotation Xrotation
							JOINT RightHand
							{
								OFFSET -0.255298 0.007772 -0.005559
								CHANNELS 3 Zrotation Yrotation Xrotation
								End Site
								{
									OFFSET 0.000000 0.000000 0.000000
								}
							}
						}
					}
				}
			}
		}
	}
}
MOTION
Frames: 16
Frame Time: 0.050000
0.000000 0.715757 0.000000 -3.962655 -38.760522 7.246178 12.920185 13.178088 -50.489739 -0.048245 14.721305 86.595326 7.775412 11.508356 -18.660339 0.000000 0.000000 0.000000 -29.259374 4.504351 -50.931639 48.705899 -15.456338 50.803785 -16.058740 -52.091130 -13.319152 0.000000 0.000000 0.000000 4.044529 4.403054 47.437563 -4.360742 0.922544 -26.293461 -2.734881 12.408048 23.520209 12.564011 -8.258694 -14.713873 0.000000 0.000000 0.000000 6.095810 -17.277184 5.128776 -20.123694 -20.655736 -0.737093 126.815279 -28.142406 -44.930283 0.000000 0.000000 0.000000 4.191257 8.317597 2.776763 6.139672 33.756615 -1.627700 -119.337663 42.679591 -64.014837 0.000000 0.000000 0.000000 
0.000191 0.720799 0.000842 -4.966018 -36.610811 7.675133 8.496908 10.858805 -53.690525 6.040039 6.538635 88.095781 7.270060 11.504574 -15.180842 0.000000 0.000000 0.000000 -31.015162 3.654782 -49.051141 53.446686 -15.861329 44.587344 -21.364349 -58.283788 -6.379271 0.000000 0.000000 0.000000 7.445540 3.207512 51.386887 -8.403060 1.757326 -29.953915 0.606524 8.650803 25.498261 12.042115 -8.488394 -13.658048 0.000000 0.000000 0.000000 2.486483 -18.664330 6.258242 -13.378500 -23.668548 -0.983949 122.173630 -25.090199 -35.662803 0.000000 0.000000 0.000000 -0.049741 6.323633 2.083980 4.408698 32.901009 -2.049202 -110.936460 41.214261 -56.155521 0.000000 0.000000 0.000000 
-0.000148 0.720911 0.001945 -3.996467 -34.379100 7.968060 8.022567 10.566288 -56.064414 3.918411 7.301046 88.564341 8.465891 14.422187 -16.959640 0.000000 0.000000 0.000000 -34.036812 2.501204 -49.555287 55.891363 -17.332035 42.151758 -20.166680 -57.854001 -8.702737 0.000000 0.000000 0.000000 8.016901 2.599846 52.619871 -6.452095 1.399151 -29.929583 -1.115551 7.291712 26.272260 11.064955 -8.019483 -13.073925 0.000000 0.000000 0.000000 -1.034820 -18.898744 7.168393 -10.361435 -20.362061 -1.375826 123.202640 -24.130200 -35.558656 0.000000 0.000000 0.000000 0.316313 6.616809 2.182590 -0.575712 32.451529 -3.003755 -110.175242 35.910199 -49.098802 0.000000 0.000000 0.000000 
-0.000696 0.725600 0.003875 -3.127257 -33.692366 8.466761 7.087342 10.179794 -57.669889 2.219174 8.627764 87.950354 8.323964 14.503671 -14.794170 0.000000 0.000000 0.000000 -35.795919 1.965213 -50.980930 56.612764 -17.254617 39.492822 -21.772614 -58.187379 -5.417735 0.000000 0.000000 0.000000 9.933513 1.781265 54.333194 -7.965161 1.669973 -29.916755 -2.955112 5.887891 25.630463 11.051657 -8.639604 -9.822179 0.000000 0.000000 0.000000 -0.119995 -18.581101 6.874184 -10.061863 -19.216337 -1.396184 120.040045 -23.453800 -32.163124 0.000000 0.000000 0.000000 -0.231271 4.303861 1.441750 -3.527927 33.005005 -3.717044 -106.408682 33.306517 -43.406201 0.000000 0.000000 0.000000 
-0.001782 0.725141 0.006466 -2.541383 -33.311082 8.686738 8.390443 10.947925 -57.843341 -1.351728 12.286752 86.681330 9.392338 17.209034 -15.559187 0.000000 0.000000 0.000000 -36.262634 1.685940 -53.176966 56.088766 -17.803088 39.778938 -21.671571 -58.500994 -5.880558 0.000000 0.000000 0.000000 10.327667 1.907535 57.301853 -9.020612 1.801180 -32.529871 -2.748645 4.993749 27.050500 11.326922 -9.087629 -9.175100 0.000000 0.000000 0.000000 -0.141730 -17.378928 6.455123 -10.652538 -17.145520 -1.552021 120.960025 -24.251677 -33.921807 0.000000 0.000000 0.000000 0.322776 2.541694 0.817700 -7.422730 31.538731 -4.266272 -104.097993 31.104264 -39.500365 0.000000 0.000000 0.000000 
-0.002939 0.725295 0.009549 -2.269027 -32.117597 9.127865 9.107996 10.975990 -57.955341 -4.068629 14.629425 85.468601 10.120798 19.210200 -14.596769 0.000000 0.000000 0.000000 -35.581269 1.459503 -54.233627 53.968122 -17.983719 41.199799 -20.444966 -57.170091 -7.342471 0.000000 0.000000 0.000000 10.572837 1.678849 59.369776 -8.155328 1.617282 -32.713357 -3.571527 6.035197 26.362585 11.376640 -8.848094 -9.272019 0.000000 0.000000 0.000000 -0.830928 -17.147307 6.432536 -10.160863 -15.030296 -1.576618 120.106110 -24.313880 -34.914738 0.000000 0.000000 0.000000 0.474607 2.068273 0.690992 -10.496926 28.616301 -4.034124 -101.697191 27.741330 -33.373030 0.000000 0.000000 0.000000 
-0.004166 0.726289 0.013038 -1.882783 -29.941733 9.384329 9.345835 10.081676 -57.508342 -6.301534 15.953273 83.375005 10.774432 21.062164 -15.693207 0.000000 0.000000 0.000000 -35.509333 0.734961 -55.073549 51.742194 -18.604104 43.025527 -20.626731 -55.691156 -5.738061 0.000000 0.000000 0.000000 10.926700 0.967656 61.303998 -7.945630 1.538693 -34.741478 -3.995852 6.155771 28.194702 12.673032 -10.003317 -9.057683 0.000000 0.000000 0.000000 -0.370391 -15.294662 5.642373 -11.342392 -14.898247 -1.729184 120.583542 -25.746109 -37.775597 0.000000 0.000000 0.000000 1.625974 0.720646 0.191796 -13.620509 27.726312 -4.195911 -99.668205 26.309526 -30.563882 0.000000 0.000000 0.000000 
-0.005365 0.729781 0.016946 -1.751824 -27.067947 9.822763 9.601343 8.929468 -57.104048 -8.091622 16.383458 81.341664 11.627326 23.640283 -16.355017 0.000000 0.000000 0.000000 -34.294722 0.064568 -55.787157 48.936169 -19.090501 45.391552 -20.466106 -54.728930 -5.573708 0.000000 0.000000 0.000000 11.267070 -0.156939 62.411988 -7.570410 1.516050 -34.812361 -3.757918 6.098065 28.416251 11.758215 -8.636354 -11.163199 0.000000 0.000000 0.000000 -0.393629 -14.466993 5.330328 -12.752679 -15.495578 -1.807299 120.195824 -26.904295 -39.381174 0.000000 0.000000 0.000000 0.976640 0.383046 0.132008 -14.647411 26.776936 -4.029500 -98.492025 25.476807 -28.649408 0.000000 0.000000 0.000000 
-0.006470 0.734876 0.022020 -1.514863 -24.241184 10.295347 9.584351 7.567365 -56.153266 -9.572765 16.262469 78.232504 11.994317 25.298572 -18.600135 0.000000 0.000000 0.000000 -33.440278 -0.689698 -56.756016 46.475325 -19.650663 47.667414 -20.083320 -53.210326 -5.393607 0.000000 0.000000 0.000000 11.302721 -1.200629 62.632475 -6.269925 1.359874 -34.392162 -4.661888 7.442868 28.568655 12.950851 -8.866299 -13.028173 0.000000 0.000000 0.000000 1.501221 -12.936452 4.491825 -15.419373 -18.111823 -1.710328 117.454045 -28.419080 -40.339416 0.000000 0.000000 0.000000 1.485376 -0.078237 0.010269 -16.111302 26.933848 -4.067822 -94.546431 24.843568 -25.481278 0.000000 0.000000 0.000000 
-0.007589 0.742186 0.029461 -1.972476 -22.285421 11.022372 9.812329 6.758242 -55.297787 -10.365926 15.743752 75.530241 11.578111 24.661402 -20.071243 0.000000 0.000000 0.000000 -31.299334 -0.659741 -57.291675 43.470151 -19.080099 49.418369 -19.622216 -52.894764 -6.484384 0.000000 0.000000 0.000000 10.270604 -1.373764 61.120361 -4.391986 1.160180 -32.845958 -4.247671 9.725247 28.800173 13.051950 -7.973028 -15.338758 0.000000 0.000000 0.000000 2.099236 -12.238924 4.178232 -18.325189 -20.070465 -1.570350 117.043745 -30.415427 -43.754747 0.000000 0.000000 0.000000 -0.456454 0.028438 0.097066 -15.457637 27.385861 -3.898050 -91.642199 22.988651 -21.299412 0.000000 0.000000 0.000000 
-0.009424 0.752941 0.041654 -2.648457 -20.357763 11.258607 9.965790 5.778919 -53.376523 -10.995973 15.186159 72.747772 10.993833 23.331532 -20.861909 0.000000 0.000000 0.000000 -28.300195 -0.222458 -57.505984 40.104110 -17.989420 51.056069 -18.817668 -50.358511 -6.048147 0.000000 0.000000 0.000000 9.507072 -1.644348 60.437128 -2.867365 0.947701 -32.389636 -5.135423 11.779841 29.213019 14.648051 -8.851671 -15.430504 0.000000 0.000000 0.000000 2.168058 -11.327971 3.838023 -21.488231 -23.132456 -1.197848 116.196994 -34.531544 -49.880471 0.000000 0.000000 0.000000 1.975245 1.387627 0.777175 -18.347157 29.276480 -4.533068 -88.158526 21.302823 -18.144139 0.000000 0.000000 0.000000 
-0.012269 0.763352 0.059670 -2.532538 -17.870036 11.431129 8.592322 3.870933 -51.464706 -12.733246 15.312634 69.614167 11.367469 25.118510 -21.994683 0.000000 0.000000 0.000000 -25.767878 -0.117205 -56.250949 36.300672 -16.791761 53.155962 -17.365369 -47.658825 -7.556353 0.000000 0.000000 0.000000 8.579961 -2.036471 57.327137 -1.204331 0.712521 -30.257898 -5.621244 13.719553 29.345238 12.364631 -6.477088 -16.503012 0.000000 0.000000 0.000000 0.792771 -11.763279 3.955949 -25.158732 -22.929006 -1.002984 117.909115 -38.723282 -58.165735 0.000000 0.000000 0.000000 2.118011 3.241025 1.613496 -17.270696 29.843308 -4.413719 -85.182751 21.598434 -16.729986 0.000000 0.000000 0.000000 
-0.015117 0.774633 0.084906 -2.913402 -15.520175 11.361726 8.017070 2.663544 -49.764835 -12.432995 14.028636 68.594254 11.257020 24.565660 -19.539953 0.000000 0.000000 0.000000 -23.667178 -0.100578 -54.845694 32.261596 -15.637742 56.294777 -16.507358 -43.827610 -5.976634 0.000000 0.000000 0.000000 7.641883 -2.329768 54.016437 -1.319539 0.697529 -27.930407 -5.314421 14.230124 28.057593 9.866986 -4.582646 -15.854695 0.000000 0.000000 0.000000 -2.028185 -9.525515 3.049672 -28.138847 -23.101809 -0.684267 123.999547 -48.044011 -77.165062 0.000000 0.000000 0.000000 4.452228 3.308836 1.940204 -18.754559 35.414566 -6.197670 -81.854118 24.179813 -17.442317 0.000000 0.000000 0.000000 
-0.016802 0.787675 0.117364 -3.370769 -11.039676 10.544189 9.769787 2.224502 -48.747042 -14.321515 14.682089 71.045436 12.706301 27.270943 -12.897977 0.000000 0.000000 0.000000 -22.228469 -0.836256 -49.405705 29.101812 -14.502553 56.342778 -16.276276 -42.923372 -6.765910 0.000000 0.000000 0.000000 8.304816 -3.808134 50.017497 -2.303389 0.930211 -26.291025 -3.849520 15.121122 28.220216 5.855615 -2.302019 -10.632787 0.000000 0.000000 0.000000 -6.517809 -9.574961 2.594089 -29.825115 -19.939625 -0.985741 133.927726 -54.464270 -98.889924 0.000000 0.000000 0.000000 4.905092 3.664399 2.269041 -17.578400 37.667035 -6.382031 -76.314843 27.164290 -17.486724 0.000000 0.000000 0.000000 
-0.015167 0.799620 0.154911 -2.851777 -8.318204 8.660403 12.639477 2.910397 -49.424781 -21.764313 20.596712 71.841352 15.888340 30.395229 3.138673 0.000000 0.000000 0.000000 -20.613635 -0.866357 -43.032571 24.201188 -12.074561 57.956617 -14.569484 -39.082294 -8.811789 0.000000 0.000000 0.000000 6.319827 -3.372929 48.009792 -1.370975 0.782126 -25.167498 -4.053404 18.741720 27.594187 6.995441 -2.962304 -9.070718 0.000000 0.000000 0.000000 -6.781026 -9.472871 1.928034 -32.395638 -17.115022 -1.264792 141.616993 -59.324130 -118.313254 0.000000 0.000000 0.000000 6.839827 4.967943 3.504999 -19.770977 35.600323 -5.814287 -73.335043 28.730397 -17.663237 0.000000 0.000000 0.000000 
-0.008352 0.809406 0.195448 -1.504220 -5.775033 7.013363 15.131474 3.552125 -50.896348 -33.670815 26.073758 62.512947 27.599059 41.862203 18.555380 0.000000 0.000000 0.000000 -19.077980 -0.737727 -35.976757 19.423695 -9.350189 57.894737 -13.664012 -37.460104 -11.575033 0.000000 0.000000 0.000000 3.676827 -2.491051 44.409334 0.081621 0.535147 -25.360033 -3.619866 23.795677 29.934019 8.978355 -4.222697 -7.760358 0.000000 0.000000 0.000000 -6.976110 -7.285813 0.171114 -33.558200 -17.056156 -1.111516 154.436751 -64.894036 -146.076179 0.000000 0.000000 0.000000 4.053696 4.667067 3.121304 -18.855438 35.037754 -4.660593 -65.234603 28.241560 -13.865230 0.000000 0.000000 0.000000 
